<svg xmlns="http://www.w3.org/2000/svg" viewBox="0 0 1200 1200"><defs><style>.cls-1{fill:#fff;}</style></defs><g id="Layer_2" data-name="Layer 2"><g id="LOGO"><circle class="cls-1" cx="600" cy="249.8" r="85.74" transform="translate(-44.91 169.22) rotate(-15.48)"/><circle class="cls-1" cx="868.61" cy="400.75" r="85.74" transform="translate(-28.96 731.58) rotate(-45)"/><circle class="cls-1" cx="331.39" cy="400.75" r="85.74"/><path class="cls-1" d="M1149.72,363.78C1051.42,142.5,828.11,5.49,600,0,371.89,5.49,148.58,142.5,50.28,363.78-68.1,630.28,29.7,938.88,268.65,1096.24,365,1159.69,469.79,1193.28,600,1200c130.21-6.72,235-40.31,331.35-103.76C1170.3,938.88,1268.1,630.28,1149.72,363.78ZM759.88,1064.34C708,1082.89,654.75,1094,600,1095.89c-54.75-1.88-108-13-159.88-31.55-7-2.51-19-10.23-18.34-12.52,4.13-14.69,9.74-29.51,18.07-42.07,2.46-3.71,15.91-2.25,23.25.19q68.4,22.75,136.9,25.37,68.52-2.57,136.9-25.37c7.34-2.44,20.79-3.9,23.25-.19,8.33,12.56,13.94,27.38,18.07,42.07C778.86,1054.11,766.92,1061.83,759.88,1064.34Zm327.15-363c-28.57,132.53-104.23,231.79-212.28,307.88-15.79,11.13-23.46,7-33.26-7.31C796.41,936,750,871.06,705.17,805,693.41,787.71,684,780.87,661.79,790A193.48,193.48,0,0,1,600,804a193.48,193.48,0,0,1-61.79-14c-22.24-9.09-31.62-2.25-43.38,15.06-44.86,66-91.24,131-136.32,196.91-9.8,14.33-17.47,18.44-33.26,7.31C217.2,933.15,141.54,833.89,113,701.36c-6.59-30.62-7.69-62.46-11.54-95.65H154c.89,4,1.81,6.51,2,9.12,7.27,106.55,47.28,198.26,118.32,276.69,13,14.39,20.3,13.27,30.65-1.17,39-54.4,78.72-108.28,117.32-163,3.38-4.77,3.64-16.32.3-20.83-28.08-37.95-40-80.76-41.77-127.62-.2-5.44-7.51-13.6-13-15.28-18.46-5.63-37.6-8.94-56.5-13-64.46-13.92-128.94-27.79-196-42.25,1.15-8.78,1.5-15.53,3-22C143.66,374,201.57,281.88,290.51,211.73,383.28,138.56,486.79,96.25,600,94.27c113.21,2,216.72,44.29,309.49,117.46,88.94,70.15,146.85,162.26,172.36,274.63,1.47,6.49,1.82,13.24,3,22-67.11,14.46-131.59,28.33-196,42.25-18.9,4.08-38,7.39-56.5,13-5.54,1.68-12.85,9.84-13,15.28-1.78,46.86-13.69,89.67-41.77,127.62-3.34,4.51-3.08,16.06.3,20.83,38.6,54.69,78.3,108.57,117.32,163,10.35,14.44,17.62,15.56,30.65,1.17,71-78.43,111-170.14,118.32-276.69.18-2.61,1.1-5.16,2-9.12h52.54C1094.72,638.9,1093.62,670.74,1087,701.36Z"/><path class="cls-1" d="M600,429.9A151.64,151.64,0,1,0,751.64,581.54,151.64,151.64,0,0,0,600,429.9Zm0,233.89a82.25,82.25,0,1,1,82.25-82.25A82.24,82.24,0,0,1,600,663.79Z"/></g></g></svg>